<mxfile host="app.diagrams.net" modified="2024-01-11T14:34:31.601Z" agent="Mozilla/5.0 (Macintosh; Intel Mac OS X 10_15_7) AppleWebKit/605.1.15 (KHTML, like Gecko) Version/17.0 Safari/605.1.15" etag="FWreq6WIM806EcdgfF8D" version="22.1.18" type="device">
  <diagram id="rhH7-giMEyksB6RKEh81" name="Page-1">
    <mxGraphModel dx="954" dy="647" grid="1" gridSize="10" guides="1" tooltips="1" connect="1" arrows="1" fold="1" page="1" pageScale="1" pageWidth="1169" pageHeight="1654" math="0" shadow="0">
      <root>
        <mxCell id="0" />
        <mxCell id="1" parent="0" />
        <mxCell id="Qrqr2cWc0G5BHI9oxjgN-1" value="Partyplanner.com" style="rounded=1;whiteSpace=wrap;html=1;strokeColor=#33FF33;" parent="1" vertex="1">
          <mxGeometry x="520" y="150" width="200" height="60" as="geometry" />
        </mxCell>
        <mxCell id="Qrqr2cWc0G5BHI9oxjgN-2" value="" style="endArrow=classic;html=1;rounded=0;exitX=0.5;exitY=1;exitDx=0;exitDy=0;strokeColor=#33FF33;" parent="1" source="Qrqr2cWc0G5BHI9oxjgN-1" edge="1">
          <mxGeometry width="50" height="50" relative="1" as="geometry">
            <mxPoint x="610" y="220" as="sourcePoint" />
            <mxPoint x="620" y="320" as="targetPoint" />
          </mxGeometry>
        </mxCell>
        <mxCell id="Qrqr2cWc0G5BHI9oxjgN-19" value="" style="group" parent="1" vertex="1" connectable="0">
          <mxGeometry x="270" y="420" width="120" height="100" as="geometry" />
        </mxCell>
        <mxCell id="Qrqr2cWc0G5BHI9oxjgN-16" value="Support" style="rounded=1;whiteSpace=wrap;html=1;" parent="Qrqr2cWc0G5BHI9oxjgN-19" vertex="1">
          <mxGeometry y="70" width="120" height="30" as="geometry" />
        </mxCell>
        <mxCell id="Qrqr2cWc0G5BHI9oxjgN-20" value="" style="group" parent="1" vertex="1" connectable="0">
          <mxGeometry x="120" y="420" width="120" height="100" as="geometry" />
        </mxCell>
        <mxCell id="Qrqr2cWc0G5BHI9oxjgN-14" value="My Tickets" style="rounded=1;whiteSpace=wrap;html=1;" parent="Qrqr2cWc0G5BHI9oxjgN-20" vertex="1">
          <mxGeometry y="70" width="120" height="30" as="geometry" />
        </mxCell>
        <mxCell id="Qrqr2cWc0G5BHI9oxjgN-23" value="" style="group" parent="1" vertex="1" connectable="0">
          <mxGeometry x="335" y="320" width="120" height="100" as="geometry" />
        </mxCell>
        <mxCell id="Qrqr2cWc0G5BHI9oxjgN-17" value="" style="endArrow=classic;html=1;rounded=0;exitX=0.5;exitY=1;exitDx=0;exitDy=0;" parent="Qrqr2cWc0G5BHI9oxjgN-23" edge="1">
          <mxGeometry width="50" height="50" relative="1" as="geometry">
            <mxPoint x="60" as="sourcePoint" />
            <mxPoint x="60" y="70" as="targetPoint" />
          </mxGeometry>
        </mxCell>
        <mxCell id="Qrqr2cWc0G5BHI9oxjgN-18" value="Promotions" style="rounded=1;whiteSpace=wrap;html=1;" parent="Qrqr2cWc0G5BHI9oxjgN-23" vertex="1">
          <mxGeometry y="70" width="120" height="30" as="geometry" />
        </mxCell>
        <mxCell id="Qrqr2cWc0G5BHI9oxjgN-24" value="" style="group" parent="1" vertex="1" connectable="0">
          <mxGeometry x="185" y="320" width="120" height="100" as="geometry" />
        </mxCell>
        <mxCell id="Qrqr2cWc0G5BHI9oxjgN-5" value="" style="endArrow=classic;html=1;rounded=0;exitX=0.5;exitY=1;exitDx=0;exitDy=0;" parent="Qrqr2cWc0G5BHI9oxjgN-24" edge="1">
          <mxGeometry width="50" height="50" relative="1" as="geometry">
            <mxPoint x="60" as="sourcePoint" />
            <mxPoint x="60" y="70" as="targetPoint" />
          </mxGeometry>
        </mxCell>
        <mxCell id="Qrqr2cWc0G5BHI9oxjgN-6" value="My Acount" style="rounded=1;whiteSpace=wrap;html=1;" parent="Qrqr2cWc0G5BHI9oxjgN-24" vertex="1">
          <mxGeometry y="70" width="120" height="30" as="geometry" />
        </mxCell>
        <mxCell id="Qrqr2cWc0G5BHI9oxjgN-9" value="" style="endArrow=classic;html=1;rounded=0;exitX=0.5;exitY=1;exitDx=0;exitDy=0;" parent="1" edge="1">
          <mxGeometry width="50" height="50" relative="1" as="geometry">
            <mxPoint x="545" y="320" as="sourcePoint" />
            <mxPoint x="545" y="390" as="targetPoint" />
          </mxGeometry>
        </mxCell>
        <mxCell id="Qrqr2cWc0G5BHI9oxjgN-10" value="About" style="rounded=1;whiteSpace=wrap;html=1;" parent="1" vertex="1">
          <mxGeometry x="485" y="390" width="120" height="30" as="geometry" />
        </mxCell>
        <mxCell id="Qrqr2cWc0G5BHI9oxjgN-30" value="" style="group" parent="1" vertex="1" connectable="0">
          <mxGeometry x="765" y="320" width="120" height="100" as="geometry" />
        </mxCell>
        <mxCell id="Qrqr2cWc0G5BHI9oxjgN-31" value="" style="endArrow=classic;html=1;rounded=0;exitX=0.5;exitY=1;exitDx=0;exitDy=0;" parent="Qrqr2cWc0G5BHI9oxjgN-30" edge="1">
          <mxGeometry width="50" height="50" relative="1" as="geometry">
            <mxPoint x="60" as="sourcePoint" />
            <mxPoint x="60" y="70" as="targetPoint" />
          </mxGeometry>
        </mxCell>
        <mxCell id="Qrqr2cWc0G5BHI9oxjgN-32" value="Clubs" style="rounded=1;whiteSpace=wrap;html=1;" parent="Qrqr2cWc0G5BHI9oxjgN-30" vertex="1">
          <mxGeometry y="70" width="120" height="30" as="geometry" />
        </mxCell>
        <mxCell id="Qrqr2cWc0G5BHI9oxjgN-36" value="" style="endArrow=classic;html=1;rounded=0;exitX=0.5;exitY=1;exitDx=0;exitDy=0;" parent="1" edge="1">
          <mxGeometry width="50" height="50" relative="1" as="geometry">
            <mxPoint x="970" y="320" as="sourcePoint" />
            <mxPoint x="970" y="390" as="targetPoint" />
          </mxGeometry>
        </mxCell>
        <mxCell id="xuLzaJC69_CgWXgRk18C-5" style="edgeStyle=orthogonalEdgeStyle;rounded=0;orthogonalLoop=1;jettySize=auto;html=1;entryX=1;entryY=0.5;entryDx=0;entryDy=0;exitX=0.5;exitY=1;exitDx=0;exitDy=0;" edge="1" parent="1" source="Qrqr2cWc0G5BHI9oxjgN-37" target="xuLzaJC69_CgWXgRk18C-3">
          <mxGeometry relative="1" as="geometry" />
        </mxCell>
        <mxCell id="Qrqr2cWc0G5BHI9oxjgN-37" value="Other events" style="rounded=1;whiteSpace=wrap;html=1;" parent="1" vertex="1">
          <mxGeometry x="910" y="390" width="120" height="30" as="geometry" />
        </mxCell>
        <mxCell id="xuLzaJC69_CgWXgRk18C-4" style="edgeStyle=orthogonalEdgeStyle;rounded=0;orthogonalLoop=1;jettySize=auto;html=1;entryX=0;entryY=0.5;entryDx=0;entryDy=0;exitX=0.5;exitY=1;exitDx=0;exitDy=0;" edge="1" parent="1" source="Qrqr2cWc0G5BHI9oxjgN-35" target="xuLzaJC69_CgWXgRk18C-3">
          <mxGeometry relative="1" as="geometry" />
        </mxCell>
        <mxCell id="Qrqr2cWc0G5BHI9oxjgN-35" value="Concerts" style="rounded=1;whiteSpace=wrap;html=1;" parent="1" vertex="1">
          <mxGeometry x="630" y="390" width="120" height="30" as="geometry" />
        </mxCell>
        <mxCell id="Qrqr2cWc0G5BHI9oxjgN-29" value="" style="endArrow=none;html=1;rounded=0;" parent="1" edge="1">
          <mxGeometry width="50" height="50" relative="1" as="geometry">
            <mxPoint x="690" y="320" as="sourcePoint" />
            <mxPoint x="970" y="320" as="targetPoint" />
          </mxGeometry>
        </mxCell>
        <mxCell id="Qrqr2cWc0G5BHI9oxjgN-34" value="" style="endArrow=classic;html=1;rounded=0;exitX=0.5;exitY=1;exitDx=0;exitDy=0;" parent="1" edge="1">
          <mxGeometry width="50" height="50" relative="1" as="geometry">
            <mxPoint x="690" y="320" as="sourcePoint" />
            <mxPoint x="690" y="390" as="targetPoint" />
          </mxGeometry>
        </mxCell>
        <mxCell id="Qrqr2cWc0G5BHI9oxjgN-39" value="" style="endArrow=classic;html=1;rounded=0;exitX=0.5;exitY=1;exitDx=0;exitDy=0;" parent="1" edge="1">
          <mxGeometry width="50" height="50" relative="1" as="geometry">
            <mxPoint x="689.5" y="320" as="sourcePoint" />
            <mxPoint x="689.5" y="390" as="targetPoint" />
          </mxGeometry>
        </mxCell>
        <mxCell id="Qrqr2cWc0G5BHI9oxjgN-3" value="" style="endArrow=none;html=1;rounded=0;" parent="1" edge="1">
          <mxGeometry width="50" height="50" relative="1" as="geometry">
            <mxPoint x="245" y="320" as="sourcePoint" />
            <mxPoint x="995" y="320" as="targetPoint" />
          </mxGeometry>
        </mxCell>
        <mxCell id="xuLzaJC69_CgWXgRk18C-1" value="" style="group" vertex="1" connectable="0" parent="1">
          <mxGeometry x="765" y="420" width="120" height="100" as="geometry" />
        </mxCell>
        <mxCell id="xuLzaJC69_CgWXgRk18C-2" value="" style="endArrow=classic;html=1;rounded=0;exitX=0.5;exitY=1;exitDx=0;exitDy=0;" edge="1" parent="xuLzaJC69_CgWXgRk18C-1">
          <mxGeometry width="50" height="50" relative="1" as="geometry">
            <mxPoint x="60" as="sourcePoint" />
            <mxPoint x="60" y="70" as="targetPoint" />
          </mxGeometry>
        </mxCell>
        <mxCell id="xuLzaJC69_CgWXgRk18C-3" value="Entrada evento" style="rounded=1;whiteSpace=wrap;html=1;" vertex="1" parent="xuLzaJC69_CgWXgRk18C-1">
          <mxGeometry y="70" width="120" height="30" as="geometry" />
        </mxCell>
        <mxCell id="xuLzaJC69_CgWXgRk18C-6" style="edgeStyle=orthogonalEdgeStyle;rounded=0;orthogonalLoop=1;jettySize=auto;html=1;" edge="1" parent="1" source="Qrqr2cWc0G5BHI9oxjgN-6" target="Qrqr2cWc0G5BHI9oxjgN-14">
          <mxGeometry relative="1" as="geometry" />
        </mxCell>
        <mxCell id="xuLzaJC69_CgWXgRk18C-7" style="edgeStyle=orthogonalEdgeStyle;rounded=0;orthogonalLoop=1;jettySize=auto;html=1;" edge="1" parent="1" source="Qrqr2cWc0G5BHI9oxjgN-6" target="Qrqr2cWc0G5BHI9oxjgN-16">
          <mxGeometry relative="1" as="geometry" />
        </mxCell>
      </root>
    </mxGraphModel>
  </diagram>
</mxfile>
